{"title":"Colombiana.2011.HDRip.READNFO.XviD.AC3-BHP","uid":6728386,"size":1087424254,"categoryP":"video","categoryS":"movies","magnet":"?xt=urn:btih:eafdef74509d2264ef564bfbcca8d2afed39f2c4&amp;dn=Colombiana.2011.HDRip.READNFO.XviD.AC3-BHP&amp;tr=udp%3A%2F%2Ftracker.openbittorrent.com%3A80&amp;tr=udp%3A%2F%2Fopen.demonii.com%3A1337&amp;tr=udp%3A%2F%2Ftracker.coppersurfer.tk%3A6969&amp;tr=udp%3A%2F%2Fexodus.desync.com%3A6969","seeders":0,"leechers":0,"uploader":"TvTeam","files":5,"time":1318025629,"description":". \n  &lt;a href=&quot;\nhttp://www.torrenting.com/&quot; rel=&quot;nofollow&quot; target=&quot;_NEW&quot;&gt;\nhttp://www.torrenting.com/&lt;/a&gt;        :     Greatest Movie Tracker on The Net!!!\n &lt;a href=&quot;\nhttp://www.Torrenting.com&quot; rel=&quot;nofollow&quot; target=&quot;_NEW&quot;&gt;\nhttp://www.Torrenting.com&lt;/a&gt;          :     Once &amp; For all ;)\n\n\n               www . Torrenting . Com \n\n(((((((((((((= Enjoy No RAR releases =))))))))))))))))))))\n\n\n...................................NFO:....................................\n\n.Colombiana.2011.HDRip.READNFO.XviD.AC3-BHP &lt;a href=&quot;\nhttp://www.imdb.com/title/tt1657507&quot; rel=&quot;nofollow&quot; target=&quot;_NEW&quot;&gt;\nhttp://www.imdb.com/title/tt1657507&lt;/a&gt; \n\nA young woman grows up to be a stone-cold assassin after witnessing her parents' murder as a \nchild in Bogota. She works for her uncle as a hitman by day, but her personal time is spent \nengaging in vigilante murders that she hopes will lead her to her ultimate target - the \nmobster responsible for her parents' death.\n\nGeneral\nFormat                           : AVI\nFormat/Info                      : Audio Video Interleave\nFile size                        : 1.00 GiB\nDuration                         : 1h 47mn\nOverall bit rate                 : 1 332 Kbps\nWriting application              : VirtualDubMod 1.5.10.2 (build 2540/release)\nWriting library                  : VirtualDubMod build 2540/release\n\nVideo\nID                               : 0\nFormat                           : MPEG-4 Visual\nFormat profile                   : Advanced Simple@L5\nFormat settings, BVOP            : 2\nFormat settings, QPel            : No\nFormat settings, GMC             : No warppoints\nFormat settings, Matrix          : Default (H.263)\nMuxing mode                      : Packed bitstream\nCodec ID                         : XVID\nCodec ID/Hint                    : XviD\nDuration                         : 1h 47mn\nBit rate                         : 1 130 Kbps\nWidth                            : 672 pixels\nHeight                           : 256 pixels\nDisplay aspect ratio             : 2.625\nFrame rate                       : 23.976 fps\nColor space                      : YUV\nChroma subsampling               : 4:2:0\nBit depth                        : 8 bits\nScan type                        : Progressive\nCompression mode                 : Lossy\nBits/(Pixel*Frame)               : 0.274\nStream size                      : 872 MiB (85%)\nWriting library                  : XviD 64\n\nAudio\nID                               : 1\nFormat                           : AC-3\nFormat/Info                      : Audio Coding 3\nMode extension                   : CM (complete main)\nCodec ID                         : 2000\nDuration                         : 1h 47mn\nBit rate mode                    : Constant\nBit rate                         : 192 Kbps\nChannel(s)                       : 2 channels\nChannel positions                : Front: L R\nSampling rate                    : 48.0 KHz\nBit depth                        : 16 bits\nCompression mode                 : Lossy\nStream size                      : 148 MiB (14%)\nAlignment                        : Split accross interleaves\nInterleave, duration             : 42 ms (1.00 video frame)\nInterleave, preload duration     : 500 ms\n\nNotes\nPartly cropped the korean subs, only 1 line will be visible now instead of the 2\n\nWork done\ncropped, resized and De interlaced, and shaprpend\n\nScreens\n[IMG]http://i.imgur.com/BNJc4.png[/IMG]\n[IMG]http://i.imgur.com/IAzz8.png[/IMG]","torrent":{"xt":"urn:btih:eafdef74509d2264ef564bfbcca8d2afed39f2c4","amp;dn":"Colombiana.2011.HDRip.READNFO.XviD.AC3-BHP","amp;tr":["udp%3A%2F%2Ftracker.openbittorrent.com%3A80","udp%3A%2F%2Fopen.demonii.com%3A1337","udp%3A%2F%2Ftracker.coppersurfer.tk%3A6969","udp%3A%2F%2Fexodus.desync.com%3A6969"],"infoHash":"eafdef74509d2264ef564bfbcca8d2afed39f2c4","infoHashBuffer":{"type":"Buffer","data":[234,253,239,116,80,157,34,100,239,86,75,251,204,168,210,175,237,57,242,196]},"announce":[],"urlList":[]}}